<svg width="163" height="43" viewBox="0 0 163 43" fill="none" xmlns="http://www.w3.org/2000/svg">
<path d="M51.5379 0.787424C54.3156 0.787424 56.3269 3.4376 55.5795 6.11287L46.9067 37.157C46.1417 39.8952 43.6466 41.7888 40.8035 41.7888V41.7888C37.9257 41.7888 35.4093 39.8497 34.6758 37.067L29.1706 16.181C28.9103 15.1933 27.5111 15.1854 27.2396 16.1701L21.4455 37.1895C20.6956 39.91 18.2289 41.8007 15.4069 41.8179V41.8179C12.5418 41.8354 10.0253 39.9184 9.28114 37.1516L0.92036 6.06549C0.204407 3.40352 2.20985 0.787424 4.96643 0.787424V0.787424C6.92317 0.787424 8.61934 2.1418 9.05239 4.05002L14.6316 28.6349C14.8633 29.6557 16.3089 29.6796 16.5742 28.667L22.7247 5.19092C23.4044 2.59663 25.7487 0.787424 28.4305 0.787424V0.787424C31.14 0.787424 33.501 2.63331 34.1547 5.26272L39.9052 28.3938C40.159 29.4146 41.6144 29.4018 41.8502 28.3767L47.4483 4.04295C47.8867 2.13761 49.5828 0.787424 51.5379 0.787424V0.787424Z" fill="#FF9C86"/>
<path d="M81.4692 42.2C77.6314 42.2 74.1069 41.2993 70.8957 39.4979C67.6846 37.6965 65.1391 35.2098 63.2594 32.0378C61.3797 28.8266 60.4398 25.2042 60.4398 21.1706C60.4398 17.1762 61.3797 13.593 63.2594 10.421C65.1391 7.2098 67.6846 4.70351 70.8957 2.90211C74.1069 1.10071 77.6314 0.200012 81.4692 0.200012C85.3461 0.200012 88.8706 1.10071 92.0426 2.90211C95.2538 4.70351 97.7797 7.2098 99.6202 10.421C101.5 13.593 102.44 17.1762 102.44 21.1706C102.44 25.2042 101.5 28.8266 99.6202 32.0378C97.7797 35.2098 95.2538 37.6965 92.0426 39.4979C88.8314 41.2993 85.3069 42.2 81.4692 42.2ZM81.4692 34.8574C83.9363 34.8574 86.1097 34.3091 87.9894 33.2126C89.8692 32.0769 91.3377 30.4713 92.3951 28.3958C93.4524 26.3203 93.9811 23.9119 93.9811 21.1706C93.9811 18.4294 93.4524 16.0406 92.3951 14.0042C91.3377 11.9287 89.8692 10.3427 87.9894 9.24617C86.1097 8.14966 83.9363 7.60141 81.4692 7.60141C79.002 7.60141 76.809 8.14966 74.8902 9.24617C73.0104 10.3427 71.5419 11.9287 70.4846 14.0042C69.4272 16.0406 68.8985 18.4294 68.8985 21.1706C68.8985 23.9119 69.4272 26.3203 70.4846 28.3958C71.5419 30.4713 73.0104 32.0769 74.8902 33.2126C76.809 34.3091 79.002 34.8574 81.4692 34.8574Z" fill="#FF9C86"/>
<path d="M157.834 0.787424C160.612 0.787424 162.623 3.4376 161.876 6.11287L153.203 37.157C152.438 39.8952 149.943 41.7888 147.1 41.7888V41.7888C144.222 41.7888 141.706 39.8497 140.972 37.067L136.412 19.7676C135.892 17.7921 133.093 17.7764 132.55 19.7459L127.742 37.1895C126.992 39.9101 124.525 41.8007 121.703 41.8179V41.8179C118.838 41.8354 116.322 39.9184 115.578 37.1516L107.217 6.06549C106.501 3.40352 108.506 0.787424 111.263 0.787424V0.787424C113.22 0.787424 114.916 2.1418 115.349 4.05002L120.023 24.6446C120.486 26.6861 123.377 26.7339 123.908 24.7089L129.021 5.19092C129.701 2.59663 132.045 0.787424 134.727 0.787424V0.787424C137.436 0.787424 139.797 2.63332 140.451 5.26273L145.194 24.3386C145.701 26.3802 148.612 26.3547 149.084 24.3044L153.745 4.04296C154.183 2.13761 155.879 0.787424 157.834 0.787424V0.787424Z" fill="#FF9C86"/>
</svg>
